# Blender v2.79 (sub 0) OBJ File: 'colorgrid.blend'
# www.blender.org
mtllib colorgrid2.mtl
g Grid.013_Grid.015
v -0.356435 0.130945 2.408699
v -0.134213 0.130945 2.408699
v 0.088010 0.130945 2.408699
v -0.356435 0.130945 2.186477
v -0.134213 0.130945 2.186477
v 0.088010 0.130945 2.186477
v -0.356435 0.130945 1.964255
v -0.134213 0.130945 1.964255
v 0.088010 0.130945 1.964255
v 0.088010 0.130945 2.408699
v 0.310232 0.130945 2.408699
v 0.088010 0.130945 2.186477
v 0.310232 0.130945 2.186477
v 0.088010 0.130945 1.964255
v 0.310232 0.130945 1.964255
v 0.088010 0.130945 1.742032
v 0.310232 0.130945 1.742032
v 0.088010 0.130945 1.075366
v 0.310232 0.130945 1.075366
v 0.088010 0.130945 0.853143
v 0.310232 0.130945 0.853143
v 0.088010 0.130945 0.630921
v 0.310232 0.130945 0.630921
v 0.088010 0.130945 0.408699
v 0.310232 0.130945 0.408699
v 0.088010 0.130945 1.742032
v 0.310232 0.130945 1.742032
v 0.088010 0.130945 1.519810
v 0.310232 0.130945 1.519810
v 0.088010 0.130945 1.297588
v 0.310232 0.130945 1.297588
v 0.088010 0.130945 1.075366
v 0.310232 0.130945 1.075366
v -0.356435 0.130945 1.964254
v -0.134212 0.130945 1.964254
v 0.088010 0.130945 1.964254
v -0.356435 0.130945 1.742032
v -0.134212 0.130945 1.742032
v 0.088010 0.130945 1.742032
v -0.356435 0.130945 1.519810
v -0.134212 0.130945 1.519810
v 0.088010 0.130945 1.519810
v -0.356435 0.130945 1.519810
v -0.134212 0.130945 1.519810
v 0.088010 0.130945 1.519810
v -0.356435 0.130945 1.297588
v -0.134212 0.130945 1.297588
v 0.088010 0.130945 1.297588
v -0.356435 0.130945 1.075366
v -0.134212 0.130945 1.075366
v 0.088010 0.130945 1.075366
v -0.800879 0.130945 1.519810
v -0.578657 0.130945 1.519810
v -0.356435 0.130945 1.519810
v -0.800879 0.130945 1.297588
v -0.578657 0.130945 1.297588
v -0.356435 0.130945 1.297588
v -0.800879 0.130945 1.075366
v -0.578657 0.130945 1.075366
v -0.356435 0.130945 1.075366
v -0.800879 0.130945 1.075366
v -0.578657 0.130945 1.075366
v -0.356435 0.130945 1.075366
v -0.800879 0.130945 0.853143
v -0.578657 0.130945 0.853143
v -0.356435 0.130945 0.853143
v -0.800879 0.130945 0.630921
v -0.578657 0.130945 0.630921
v -0.356435 0.130945 0.630921
v -0.800879 0.130945 0.408699
v -0.578657 0.130945 0.408699
v -0.356435 0.130945 0.408699
v -0.800879 0.130945 1.964254
v -0.578657 0.130945 1.964254
v -0.356435 0.130945 1.964254
v -0.800879 0.130945 1.742032
v -0.578657 0.130945 1.742032
v -0.356435 0.130945 1.742032
v -0.800879 0.130945 1.519810
v -0.578657 0.130945 1.519810
v -0.356435 0.130945 1.519810
v -1.245324 0.130945 1.519810
v -1.023101 0.130945 1.519810
v -0.800879 0.130945 1.519810
v -1.245324 0.130945 1.297588
v -1.023101 0.130945 1.297588
v -0.800879 0.130945 1.297588
v -1.245324 0.130945 1.075366
v -1.023101 0.130945 1.075366
v -0.800879 0.130945 1.075366
v -1.245324 0.130945 1.964254
v -1.023101 0.130945 1.964254
v -0.800879 0.130945 1.964254
v -1.245324 0.130945 1.742032
v -1.023101 0.130945 1.742032
v -0.800879 0.130945 1.742032
v -1.245324 0.130945 1.519810
v -1.023101 0.130945 1.519810
v -0.800879 0.130945 1.519810
v -0.800879 0.130945 2.408699
v -0.578657 0.130945 2.408699
v -0.356435 0.130945 2.408699
v -0.800879 0.130945 2.186477
v -0.578657 0.130945 2.186477
v -0.356435 0.130945 2.186477
v -0.800879 0.130945 1.964254
v -0.578657 0.130945 1.964254
v -0.356435 0.130945 1.964254
v -1.245324 0.130945 1.075366
v -1.023101 0.130945 1.075366
v -0.800879 0.130945 1.075366
v -1.245324 0.130945 0.853143
v -1.023101 0.130945 0.853143
v -0.800879 0.130945 0.853143
v -1.245324 0.130945 0.630921
v -1.023101 0.130945 0.630921
v -0.800879 0.130945 0.630921
v -1.245324 0.130945 0.408699
v -1.023101 0.130945 0.408699
v -0.800879 0.130945 0.408699
v -1.245324 0.130945 2.408699
v -1.023101 0.130945 2.408699
v -0.800879 0.130945 2.408699
v -1.245324 0.130945 2.186477
v -1.023101 0.130945 2.186477
v -0.800879 0.130945 2.186477
v -1.245324 0.130945 1.964254
v -1.023101 0.130945 1.964254
v -0.800879 0.130945 1.964254
v -1.689768 0.130945 1.075366
v -1.467546 0.130945 1.075366
v -1.245324 0.130945 1.075366
v -1.689768 0.130945 0.853143
v -1.467546 0.130945 0.853143
v -1.245324 0.130945 0.853143
v -1.689768 0.130945 0.630921
v -1.467546 0.130945 0.630921
v -1.245324 0.130945 0.630921
v -1.689768 0.130945 0.408699
v -1.467546 0.130945 0.408699
v -1.245324 0.130945 0.408699
v -1.689768 0.130945 1.519810
v -1.467546 0.130945 1.519810
v -1.245324 0.130945 1.519810
v -1.689768 0.130945 1.297588
v -1.467546 0.130945 1.297588
v -1.245324 0.130945 1.297588
v -1.689768 0.130945 1.075366
v -1.467546 0.130945 1.075366
v -1.245324 0.130945 1.075366
v -1.689768 0.130945 1.964254
v -1.467546 0.130945 1.964254
v -1.245324 0.130945 1.964254
v -1.689768 0.130945 1.742032
v -1.467546 0.130945 1.742032
v -1.245324 0.130945 1.742032
v -1.689768 0.130945 1.519810
v -1.467546 0.130945 1.519810
v -1.245324 0.130945 1.519810
v -1.689768 0.130945 2.408699
v -1.467546 0.130945 2.408699
v -1.245324 0.130945 2.408699
v -1.689768 0.130945 2.186477
v -1.467546 0.130945 2.186477
v -1.245324 0.130945 2.186477
v -1.689768 0.130945 1.964254
v -1.467546 0.130945 1.964254
v -1.245324 0.130945 1.964254
v -0.356435 0.130945 1.075366
v -0.134212 0.130945 1.075366
v 0.088010 0.130945 1.075366
v -0.356435 0.130945 0.853144
v -0.134212 0.130945 0.853144
v 0.088010 0.130945 0.853144
v -0.356435 0.130945 0.630921
v -0.134212 0.130945 0.630921
v 0.088010 0.130945 0.630921
v -0.356435 0.130945 0.408699
v -0.134212 0.130945 0.408699
v 0.088010 0.130945 0.408699
vn 0.0000 1.0000 0.0000
usemtl Material.014
s off
f 2//1 4//1 1//1
f 3//1 5//1 2//1
f 5//1 7//1 4//1
f 6//1 8//1 5//1
f 2//1 5//1 4//1
f 3//1 6//1 5//1
f 5//1 8//1 7//1
f 6//1 9//1 8//1
usemtl Material.018
f 11//1 12//1 10//1
f 13//1 14//1 12//1
f 15//1 16//1 14//1
f 11//1 13//1 12//1
f 13//1 15//1 14//1
f 15//1 17//1 16//1
usemtl Material.020
f 19//1 20//1 18//1
f 21//1 22//1 20//1
f 23//1 24//1 22//1
f 19//1 21//1 20//1
f 21//1 23//1 22//1
f 23//1 25//1 24//1
usemtl Material.019
f 27//1 28//1 26//1
f 29//1 30//1 28//1
f 31//1 32//1 30//1
f 27//1 29//1 28//1
f 29//1 31//1 30//1
f 31//1 33//1 32//1
usemtl Material.015
f 34//1 38//1 37//1
f 36//1 38//1 35//1
f 38//1 40//1 37//1
f 39//1 41//1 38//1
f 34//1 35//1 38//1
f 36//1 39//1 38//1
f 38//1 41//1 40//1
f 39//1 42//1 41//1
usemtl Material.016
f 44//1 46//1 43//1
f 45//1 47//1 44//1
f 47//1 49//1 46//1
f 48//1 50//1 47//1
f 44//1 47//1 46//1
f 45//1 48//1 47//1
f 47//1 50//1 49//1
f 48//1 51//1 50//1
usemtl Material.012
f 53//1 55//1 52//1
f 54//1 56//1 53//1
f 56//1 58//1 55//1
f 57//1 59//1 56//1
f 53//1 56//1 55//1
f 54//1 57//1 56//1
f 56//1 59//1 58//1
f 57//1 60//1 59//1
usemtl Material.013
f 62//1 64//1 61//1
f 62//1 66//1 65//1
f 65//1 67//1 64//1
f 65//1 69//1 68//1
f 68//1 70//1 67//1
f 69//1 71//1 68//1
f 62//1 65//1 64//1
f 62//1 63//1 66//1
f 65//1 68//1 67//1
f 65//1 66//1 69//1
f 68//1 71//1 70//1
f 69//1 72//1 71//1
usemtl Material.011
f 74//1 76//1 73//1
f 75//1 77//1 74//1
f 77//1 79//1 76//1
f 78//1 80//1 77//1
f 74//1 77//1 76//1
f 75//1 78//1 77//1
f 77//1 80//1 79//1
f 78//1 81//1 80//1
usemtl Material.008
f 83//1 85//1 82//1
f 84//1 86//1 83//1
f 86//1 88//1 85//1
f 87//1 89//1 86//1
f 83//1 86//1 85//1
f 84//1 87//1 86//1
f 86//1 89//1 88//1
f 87//1 90//1 89//1
usemtl Material.007
f 91//1 95//1 94//1
f 92//1 96//1 95//1
f 95//1 97//1 94//1
f 96//1 98//1 95//1
f 91//1 92//1 95//1
f 92//1 93//1 96//1
f 95//1 98//1 97//1
f 96//1 99//1 98//1
usemtl Material.010
f 101//1 103//1 100//1
f 102//1 104//1 101//1
f 104//1 106//1 103//1
f 105//1 107//1 104//1
f 101//1 104//1 103//1
f 102//1 105//1 104//1
f 104//1 107//1 106//1
f 105//1 108//1 107//1
usemtl Material.009
f 110//1 112//1 109//1
f 110//1 114//1 113//1
f 113//1 115//1 112//1
f 114//1 116//1 113//1
f 116//1 118//1 115//1
f 117//1 119//1 116//1
f 110//1 113//1 112//1
f 110//1 111//1 114//1
f 113//1 116//1 115//1
f 114//1 117//1 116//1
f 116//1 119//1 118//1
f 117//1 120//1 119//1
usemtl Material.006
f 122//1 124//1 121//1
f 123//1 125//1 122//1
f 125//1 127//1 124//1
f 125//1 129//1 128//1
f 122//1 125//1 124//1
f 123//1 126//1 125//1
f 125//1 128//1 127//1
f 125//1 126//1 129//1
usemtl Material.005
f 131//1 133//1 130//1
f 132//1 134//1 131//1
f 134//1 136//1 133//1
f 135//1 137//1 134//1
f 136//1 140//1 139//1
f 137//1 141//1 140//1
f 131//1 134//1 133//1
f 132//1 135//1 134//1
f 134//1 137//1 136//1
f 135//1 138//1 137//1
f 136//1 137//1 140//1
f 137//1 138//1 141//1
usemtl Material.004
f 143//1 145//1 142//1
f 144//1 146//1 143//1
f 146//1 148//1 145//1
f 147//1 149//1 146//1
f 143//1 146//1 145//1
f 144//1 147//1 146//1
f 146//1 149//1 148//1
f 147//1 150//1 149//1
usemtl Material.003
f 152//1 154//1 151//1
f 153//1 155//1 152//1
f 155//1 157//1 154//1
f 156//1 158//1 155//1
f 152//1 155//1 154//1
f 153//1 156//1 155//1
f 155//1 158//1 157//1
f 156//1 159//1 158//1
usemtl Material.002
f 161//1 163//1 160//1
f 162//1 164//1 161//1
f 164//1 166//1 163//1
f 165//1 167//1 164//1
f 161//1 164//1 163//1
f 162//1 165//1 164//1
f 164//1 167//1 166//1
f 165//1 168//1 167//1
usemtl Material.017
f 169//1 173//1 172//1
f 171//1 173//1 170//1
f 173//1 175//1 172//1
f 174//1 176//1 173//1
f 176//1 178//1 175//1
f 177//1 179//1 176//1
f 169//1 170//1 173//1
f 171//1 174//1 173//1
f 173//1 176//1 175//1
f 174//1 177//1 176//1
f 176//1 179//1 178//1
f 177//1 180//1 179//1
