# Blender v2.79 (sub 0) OBJ File: ''
# www.blender.org
mtllib coloredtorus2.mtl
g torus.000_torus.002
v 1.870103 0.104746 0.566122
v 1.946733 0.136485 0.339071
v 2.054063 -0.403066 0.339071
v 1.971147 -0.403067 0.566122
v 1.676408 0.024515 0.686392
v 1.761491 -0.403067 0.686392
v 1.456712 -0.066489 0.643331
v 1.523668 -0.403067 0.643331
v 1.314256 -0.125478 0.457144
v 1.369493 -0.403066 0.457144
v 1.316118 -0.124715 0.215444
v 1.371507 -0.403066 0.215444
v 1.461442 -0.064535 0.031881
v 1.528795 -0.403066 0.031881
v 1.681810 0.026774 -0.007212
v 1.767320 -0.403066 -0.007212
v 1.873613 0.106211 0.116567
v 1.974931 -0.403066 0.116567
v 1.582444 0.535257 0.566122
v 1.641069 0.593913 0.339071
v 1.434190 0.387003 0.686392
v 1.266038 0.218851 0.643331
v 1.156999 0.109842 0.457144
v 1.158433 0.111247 0.215444
v 1.269670 0.222483 0.031881
v 1.438310 0.391154 -0.007212
v 1.585100 0.537944 0.116567
v 1.151933 0.822917 0.566122
v 1.183641 0.899545 0.339071
v 1.071672 0.629190 0.686392
v 0.980668 0.409494 0.643331
v 0.921647 0.267069 0.457144
v 0.922441 0.268901 0.215444
v 0.982652 0.414256 0.031881
v 1.073900 0.634623 -0.007212
v 1.153337 0.826396 0.116567
v 1.151841 -1.628927 0.566122
v 1.183580 -1.705495 0.339071
v 1.071580 -1.435140 0.686392
v 0.980577 -1.215445 0.643331
v 0.921586 -1.073019 0.457144
v 0.922319 -1.074819 0.215444
v 0.982560 -1.220205 0.031881
v 1.073839 -1.440603 -0.007212
v 1.153245 -1.632345 0.116567
v 1.582292 -1.341299 0.566122
v 1.640916 -1.399892 0.339071
v 1.433976 -1.192984 0.686392
v 1.265825 -1.024832 0.643331
v 1.156816 -0.915822 0.457144
v 1.158189 -0.917196 0.215444
v 1.269487 -1.028463 0.031881
v 1.438157 -1.197164 -0.007212
v 1.584886 -1.343923 0.116567
v 1.869920 -0.910818 0.566122
v 1.946489 -0.942525 0.339071
v 1.676133 -0.830557 0.686392
v 1.456407 -0.739554 0.643331
v 1.313981 -0.680562 0.457144
v 1.315782 -0.681295 0.215444
v 1.461198 -0.741506 0.031881
v 1.681596 -0.832815 -0.007212
v 1.873308 -0.912252 0.116567
v 1.151933 0.822917 0.566122
v 1.183641 0.899545 0.339071
v 1.071672 0.629190 0.686392
v 0.980668 0.409494 0.643331
v 0.921647 0.267069 0.457144
v 0.922441 0.268901 0.215444
v 0.982652 0.414256 0.031881
v 1.073900 0.634623 -0.007212
v 1.153337 0.826396 0.116567
v 0.644090 0.923929 0.566122
v 0.644090 1.006846 0.339071
v 0.644090 0.714244 0.686392
v 0.644090 0.476419 0.643331
v 0.644090 0.322244 0.457144
v 0.644090 0.324259 0.215444
v 0.644090 0.481578 0.031881
v 0.644090 0.720103 -0.007212
v 0.644090 0.927684 0.116567
v 0.136277 0.822917 0.566122
v 0.104570 0.899516 0.339071
v 0.216539 0.629190 0.686392
v 0.307542 0.409464 0.643331
v 0.366533 0.267007 0.457144
v 0.365770 0.268870 0.215444
v 0.305559 0.414225 0.031881
v 0.214280 0.634593 -0.007212
v 0.134843 0.826365 0.116567
v -0.294203 0.535257 0.566122
v -0.352828 0.593882 0.339071
v -0.145919 0.386972 0.686392
v 0.022233 0.218820 0.643331
v 0.131242 0.109782 0.457144
v 0.129838 0.111186 0.215444
v 0.018571 0.222453 0.031881
v -0.150069 0.391123 -0.007212
v -0.296858 0.537882 0.116567
v -0.581832 0.104746 0.566122
v -0.658431 0.136485 0.339071
v -0.388106 0.024484 0.686392
v -0.168410 -0.066519 0.643331
v -0.025954 -0.125539 0.457144
v -0.027785 -0.124776 0.215444
v -0.173171 -0.064565 0.031881
v -0.393538 0.026744 -0.007212
v -0.585311 0.106150 0.116567
v -0.682845 -0.403067 0.566122
v -0.765731 -0.403066 0.339071
v -0.473128 -0.403067 0.686392
v -0.235335 -0.403067 0.643331
v -0.081130 -0.403066 0.457144
v -0.083113 -0.403066 0.215444
v -0.240493 -0.403066 0.031881
v -0.479018 -0.403066 -0.007212
v -0.686568 -0.403066 0.116567
v -0.581832 -0.910848 0.566122
v -0.658400 -0.942556 0.339071
v -0.388076 -0.830588 0.686392
v -0.168379 -0.739584 0.643331
v -0.025923 -0.680593 0.457144
v -0.027754 -0.681325 0.215444
v -0.173140 -0.741567 0.031881
v -0.393508 -0.832845 -0.007212
v -0.585250 -0.912282 0.116567
v -0.294173 -1.341330 0.566122
v -0.352797 -1.399923 0.339071
v -0.145888 -1.193015 0.686392
v 0.022264 -1.024863 0.643331
v 0.131303 -0.915853 0.457144
v 0.129899 -0.917226 0.215444
v 0.018632 -1.028524 0.031881
v -0.150038 -1.197194 -0.007212
v -0.296797 -1.343953 0.116567
v 0.136308 -1.628958 0.566122
v 0.104570 -1.705526 0.339071
v 0.216569 -1.435171 0.686392
v 0.307573 -1.215474 0.643331
v 0.366594 -1.073050 0.457144
v 0.365831 -1.074849 0.215444
v 0.305620 -1.220266 0.031881
v 0.214311 -1.440633 -0.007212
v 0.134904 -1.632375 0.116567
v 0.644090 -1.729941 0.566122
v 0.644090 -1.812826 0.339071
v 0.644090 -1.520193 0.686392
v 0.644090 -1.282400 0.643331
v 0.644090 -1.128226 0.457144
v 0.644090 -1.130178 0.215444
v 0.644090 -1.287557 0.031881
v 0.644090 -1.526113 -0.007212
v 0.644090 -1.733632 0.116567
v 1.151841 -1.628927 0.566122
v 1.183580 -1.705495 0.339071
v 1.071580 -1.435140 0.686392
v 0.980577 -1.215445 0.643331
v 0.921586 -1.073019 0.457144
v 0.922319 -1.074819 0.215444
v 0.982560 -1.220205 0.031881
v 1.073839 -1.440603 -0.007212
v 1.153245 -1.632345 0.116567
vn 0.9233 0.1837 0.3373
vn 0.9233 0.1837 0.3372
vn 0.4952 0.0985 0.8632
vn -0.1781 -0.0354 0.9834
vn -0.7613 -0.1514 0.6305
vn -0.7613 -0.1515 0.6304
vn -0.9807 -0.1952 -0.0082
vn -0.7508 -0.1494 -0.6434
vn -0.1616 -0.0322 -0.9863
vn -0.1617 -0.0322 -0.9863
vn 0.5095 0.1014 -0.8545
vn 0.9261 0.1842 -0.3294
vn 0.9261 0.1842 -0.3293
vn 0.7827 0.5231 0.3372
vn 0.7827 0.5230 0.3373
vn 0.4198 0.2805 0.8632
vn -0.1510 -0.1009 0.9834
vn -0.6454 -0.4313 0.6305
vn -0.6454 -0.4313 0.6304
vn -0.8314 -0.5556 -0.0082
vn -0.6365 -0.4253 -0.6434
vn -0.1371 -0.0916 -0.9863
vn -0.1370 -0.0916 -0.9863
vn 0.4319 0.2886 -0.8545
vn 0.7850 0.5246 -0.3294
vn 0.5230 0.7828 0.3372
vn 0.5230 0.7828 0.3373
vn 0.2805 0.4197 0.8632
vn 0.2805 0.4198 0.8632
vn -0.1009 -0.1510 0.9834
vn -0.4312 -0.6455 0.6304
vn -0.5555 -0.8315 -0.0081
vn -0.4252 -0.6365 -0.6435
vn -0.4253 -0.6365 -0.6434
vn -0.0916 -0.1371 -0.9863
vn 0.2886 0.4320 -0.8545
vn 0.5245 0.7850 -0.3295
vn 0.5245 0.7851 -0.3294
vn 0.5231 -0.7828 0.3371
vn 0.2804 -0.4196 0.8633
vn -0.1009 0.1510 0.9834
vn -0.4313 0.6454 0.6304
vn -0.5556 0.8314 -0.0079
vn -0.4253 0.6364 -0.6436
vn -0.0916 0.1370 -0.9863
vn 0.2887 -0.4320 -0.8544
vn 0.5246 -0.7850 -0.3296
vn 0.5245 -0.7850 -0.3296
vn 0.7828 -0.5230 0.3370
vn 0.7828 -0.5230 0.3371
vn 0.4197 -0.2804 0.8633
vn -0.1509 0.1009 0.9834
vn -0.1510 0.1009 0.9834
vn -0.6455 0.4312 0.6304
vn -0.8315 0.5555 -0.0079
vn -0.6364 0.4252 -0.6436
vn -0.1370 0.0915 -0.9863
vn -0.1370 0.0916 -0.9863
vn 0.4320 -0.2887 -0.8544
vn 0.7850 -0.5245 -0.3296
vn 0.9233 -0.1841 0.3371
vn 0.9233 -0.1841 0.3372
vn 0.9259 -0.1846 -0.3296
vn 0.9260 -0.1848 -0.3293
vn 0.4949 -0.0987 0.8633
vn 0.4952 -0.0989 0.8632
vn -0.1780 0.0355 0.9834
vn -0.1781 0.0356 0.9834
vn -0.7612 0.1521 0.6305
vn -0.7612 0.1523 0.6303
vn -0.9805 0.1962 -0.0079
vn -0.9805 0.1964 -0.0082
vn -0.7504 0.1503 -0.6437
vn -0.7508 0.1500 -0.6433
vn -0.1616 0.0323 -0.9863
vn -0.1617 0.0322 -0.9863
vn 0.5095 -0.1016 -0.8544
vn 0.5094 -0.1017 -0.8545
vn 0.1836 0.9234 0.3372
vn 0.1837 0.9233 0.3373
vn 0.0985 0.4951 0.8632
vn -0.0354 -0.1781 0.9834
vn -0.1514 -0.7613 0.6304
vn -0.1514 -0.7614 0.6304
vn -0.1950 -0.9808 -0.0082
vn -0.1951 -0.9808 -0.0081
vn -0.1493 -0.7508 -0.6434
vn -0.1493 -0.7508 -0.6435
vn -0.0321 -0.1617 -0.9863
vn -0.0322 -0.1617 -0.9863
vn 0.1013 0.5095 -0.8545
vn 0.1842 0.9260 -0.3295
vn -0.1837 0.9234 0.3372
vn -0.1837 0.9233 0.3372
vn -0.0985 0.4951 0.8632
vn 0.0354 -0.1781 0.9834
vn 0.1515 -0.7613 0.6305
vn 0.1515 -0.7613 0.6304
vn 0.1952 -0.9807 -0.0082
vn 0.1494 -0.7507 -0.6435
vn 0.1494 -0.7508 -0.6434
vn 0.0322 -0.1617 -0.9863
vn -0.1014 0.5095 -0.8545
vn -0.1842 0.9260 -0.3295
vn -0.5231 0.7828 0.3372
vn -0.5231 0.7828 0.3371
vn -0.2805 0.4197 0.8632
vn 0.1009 -0.1510 0.9834
vn 0.1009 -0.1509 0.9834
vn 0.4313 -0.6454 0.6305
vn 0.5556 -0.8314 -0.0081
vn 0.5556 -0.8314 -0.0082
vn 0.4253 -0.6364 -0.6435
vn 0.0916 -0.1370 -0.9863
vn -0.2886 0.4320 -0.8545
vn -0.2886 0.4319 -0.8545
vn -0.5246 0.7850 -0.3295
vn -0.7828 0.5230 0.3372
vn -0.4197 0.2804 0.8632
vn 0.1510 -0.1009 0.9834
vn 0.6454 -0.4312 0.6305
vn 0.6455 -0.4312 0.6304
vn 0.8315 -0.5555 -0.0081
vn 0.6365 -0.4252 -0.6435
vn 0.1370 -0.0915 -0.9863
vn 0.1371 -0.0916 -0.9863
vn -0.4320 0.2886 -0.8544
vn -0.4320 0.2886 -0.8545
vn -0.7851 0.5245 -0.3295
vn -0.9234 0.1836 0.3371
vn -0.9233 0.1837 0.3372
vn -0.4951 0.0985 0.8633
vn -0.4951 0.0985 0.8632
vn 0.1781 -0.0354 0.9834
vn 0.7613 -0.1514 0.6305
vn 0.9808 -0.1950 -0.0080
vn 0.7507 -0.1492 -0.6436
vn 0.7507 -0.1493 -0.6435
vn 0.1617 -0.0321 -0.9863
vn -0.5096 0.1013 -0.8544
vn -0.5095 0.1013 -0.8545
vn -0.9260 0.1842 -0.3295
vn -0.9261 0.1841 -0.3294
vn -0.9234 -0.1837 0.3370
vn -0.9234 -0.1837 0.3371
vn -0.4951 -0.0985 0.8633
vn 0.1781 0.0354 0.9834
vn 0.7613 0.1515 0.6305
vn 0.7613 0.1514 0.6305
vn 0.9808 0.1951 -0.0080
vn 0.9807 0.1951 -0.0080
vn 0.7507 0.1493 -0.6436
vn 0.7507 0.1494 -0.6436
vn 0.1616 0.0322 -0.9863
vn 0.1617 0.0322 -0.9863
vn -0.5096 -0.1014 -0.8544
vn -0.9260 -0.1842 -0.3295
vn -0.7828 -0.5231 0.3371
vn -0.7828 -0.5231 0.3370
vn -0.4197 -0.2804 0.8633
vn 0.1510 0.1009 0.9834
vn 0.6454 0.4313 0.6305
vn 0.6454 0.4313 0.6304
vn 0.8314 0.5556 -0.0080
vn 0.6364 0.4253 -0.6436
vn 0.1370 0.0916 -0.9863
vn -0.4320 -0.2887 -0.8544
vn -0.7850 -0.5245 -0.3295
vn -0.7850 -0.5246 -0.3295
vn -0.5231 -0.7828 0.3371
vn -0.5230 -0.7828 0.3371
vn -0.2804 -0.4197 0.8633
vn 0.1009 0.1510 0.9834
vn 0.4312 0.6454 0.6304
vn 0.5555 0.8315 -0.0079
vn 0.5555 0.8315 -0.0080
vn 0.4252 0.6364 -0.6436
vn 0.0916 0.1370 -0.9863
vn -0.2887 -0.4320 -0.8544
vn -0.2886 -0.4320 -0.8544
vn -0.5245 -0.7850 -0.3296
vn -0.5245 -0.7851 -0.3295
vn -0.1836 -0.9234 0.3371
vn -0.0984 -0.4950 0.8633
vn 0.0354 0.1781 0.9834
vn 0.1514 0.7613 0.6304
vn 0.1514 0.7614 0.6304
vn 0.1950 0.9808 -0.0079
vn 0.1493 0.7507 -0.6436
vn 0.1492 0.7507 -0.6436
vn 0.0321 0.1616 -0.9863
vn 0.0322 0.1617 -0.9863
vn -0.1014 -0.5096 -0.8544
vn -0.1013 -0.5096 -0.8544
vn -0.1842 -0.9260 -0.3296
vn -0.1841 -0.9260 -0.3295
vn 0.1837 -0.9234 0.3371
vn 0.0985 -0.4950 0.8633
vn -0.0354 0.1781 0.9834
vn -0.1515 0.7613 0.6304
vn -0.1951 0.9807 -0.0079
vn -0.1494 0.7507 -0.6436
vn -0.0322 0.1616 -0.9863
vn 0.1014 -0.5096 -0.8544
vn 0.1842 -0.9260 -0.3295
vn 0.1842 -0.9260 -0.3296
usemtl Material.003
s off
f 1//1 3//1 2//1
f 1//2 4//2 3//2
f 5//3 4//3 1//3
f 5//3 6//3 4//3
f 7//4 6//4 5//4
f 7//4 8//4 6//4
f 9//5 8//5 7//5
f 9//6 10//6 8//6
f 11//7 10//7 9//7
f 11//7 12//7 10//7
f 13//8 12//8 11//8
f 13//8 14//8 12//8
f 15//9 14//9 13//9
f 15//10 16//10 14//10
f 17//11 16//11 15//11
f 17//11 18//11 16//11
f 3//12 17//12 2//12
f 18//13 17//13 3//13
f 19//14 2//14 20//14
f 19//15 1//15 2//15
f 21//16 1//16 19//16
f 21//16 5//16 1//16
f 22//17 5//17 21//17
f 22//17 7//17 5//17
f 23//18 7//18 22//18
f 23//19 9//19 7//19
f 24//20 9//20 23//20
f 24//20 11//20 9//20
f 25//21 11//21 24//21
f 25//21 13//21 11//21
f 26//22 13//22 25//22
f 26//23 15//23 13//23
f 27//24 15//24 26//24
f 27//24 17//24 15//24
f 27//25 20//25 2//25
f 27//25 2//25 17//25
f 28//26 20//26 29//26
f 28//27 19//27 20//27
f 30//28 19//28 28//28
f 30//29 21//29 19//29
f 31//30 21//30 30//30
f 31//30 22//30 21//30
f 32//31 22//31 31//31
f 32//31 23//31 22//31
f 33//32 23//32 32//32
f 33//32 24//32 23//32
f 34//33 24//33 33//33
f 34//34 25//34 24//34
f 35//35 25//35 34//35
f 35//35 26//35 25//35
f 36//36 26//36 35//36
f 36//36 27//36 26//36
f 36//37 29//37 20//37
f 36//38 20//38 27//38
f 46//39 38//39 47//39
f 46//39 37//39 38//39
f 48//40 37//40 46//40
f 48//40 39//40 37//40
f 49//41 39//41 48//41
f 49//41 40//41 39//41
f 50//42 40//42 49//42
f 50//42 41//42 40//42
f 51//43 41//43 50//43
f 51//43 42//43 41//43
f 52//44 42//44 51//44
f 52//44 43//44 42//44
f 53//45 43//45 52//45
f 53//45 44//45 43//45
f 54//46 44//46 53//46
f 54//46 45//46 44//46
f 54//47 47//47 38//47
f 54//48 38//48 45//48
f 55//49 47//49 56//49
f 55//50 46//50 47//50
f 57//51 46//51 55//51
f 57//51 48//51 46//51
f 58//52 48//52 57//52
f 58//53 49//53 48//53
f 59//54 49//54 58//54
f 59//54 50//54 49//54
f 60//55 50//55 59//55
f 60//55 51//55 50//55
f 61//56 51//56 60//56
f 61//56 52//56 51//56
f 62//57 52//57 61//57
f 62//58 53//58 52//58
f 63//59 53//59 62//59
f 63//59 54//59 53//59
f 63//60 56//60 47//60
f 63//60 47//60 54//60
f 56//61 3//61 55//61
f 55//62 3//62 4//62
f 3//63 56//63 63//63
f 3//64 63//64 18//64
f 55//65 4//65 57//65
f 57//66 4//66 6//66
f 57//67 6//67 58//67
f 58//68 6//68 8//68
f 58//69 8//69 59//69
f 59//70 8//70 10//70
f 59//71 10//71 60//71
f 60//72 10//72 12//72
f 60//73 12//73 61//73
f 61//74 12//74 14//74
f 61//75 14//75 62//75
f 62//76 14//76 16//76
f 62//77 16//77 63//77
f 63//78 16//78 18//78
usemtl Material.001
f 73//79 65//79 74//79
f 73//80 64//80 65//80
f 75//81 64//81 73//81
f 75//81 66//81 64//81
f 76//82 66//82 75//82
f 76//82 67//82 66//82
f 77//83 67//83 76//83
f 77//84 68//84 67//84
f 78//85 68//85 77//85
f 78//86 69//86 68//86
f 79//87 69//87 78//87
f 79//88 70//88 69//88
f 80//89 70//89 79//89
f 80//90 71//90 70//90
f 81//91 71//91 80//91
f 81//91 72//91 71//91
f 81//92 74//92 65//92
f 81//92 65//92 72//92
f 82//93 74//93 83//93
f 82//94 73//94 74//94
f 84//95 73//95 82//95
f 84//95 75//95 73//95
f 85//96 75//96 84//96
f 85//96 76//96 75//96
f 86//97 76//97 85//97
f 86//98 77//98 76//98
f 87//99 77//99 86//99
f 87//99 78//99 77//99
f 88//100 78//100 87//100
f 88//101 79//101 78//101
f 89//102 79//102 88//102
f 89//102 80//102 79//102
f 90//103 80//103 89//103
f 90//103 81//103 80//103
f 90//104 83//104 74//104
f 90//104 74//104 81//104
f 91//105 83//105 92//105
f 91//106 82//106 83//106
f 93//107 82//107 91//107
f 93//107 84//107 82//107
f 94//108 84//108 93//108
f 94//109 85//109 84//109
f 95//110 85//110 94//110
f 95//110 86//110 85//110
f 96//111 86//111 95//111
f 96//112 87//112 86//112
f 97//113 87//113 96//113
f 97//113 88//113 87//113
f 98//114 88//114 97//114
f 98//114 89//114 88//114
f 99//115 89//115 98//115
f 99//116 90//116 89//116
f 99//117 92//117 83//117
f 99//117 83//117 90//117
f 100//118 92//118 101//118
f 100//118 91//118 92//118
f 102//119 91//119 100//119
f 102//119 93//119 91//119
f 103//120 93//120 102//120
f 103//120 94//120 93//120
f 104//121 94//121 103//121
f 104//122 95//122 94//122
f 105//123 95//123 104//123
f 105//123 96//123 95//123
f 106//124 96//124 105//124
f 106//124 97//124 96//124
f 107//125 97//125 106//125
f 107//126 98//126 97//126
f 108//127 98//127 107//127
f 108//128 99//128 98//128
f 108//129 101//129 92//129
f 108//129 92//129 99//129
f 109//130 101//130 110//130
f 109//131 100//131 101//131
f 111//132 100//132 109//132
f 111//133 102//133 100//133
f 112//134 102//134 111//134
f 112//134 103//134 102//134
f 113//135 103//135 112//135
f 113//135 104//135 103//135
f 114//136 104//136 113//136
f 114//136 105//136 104//136
f 115//137 105//137 114//137
f 115//138 106//138 105//138
f 116//139 106//139 115//139
f 116//139 107//139 106//139
f 117//140 107//140 116//140
f 117//141 108//141 107//141
f 117//142 110//142 101//142
f 117//143 101//143 108//143
f 118//144 110//144 119//144
f 118//145 109//145 110//145
f 120//146 109//146 118//146
f 120//146 111//146 109//146
f 121//147 111//147 120//147
f 121//147 112//147 111//147
f 122//148 112//148 121//148
f 122//149 113//149 112//149
f 123//150 113//150 122//150
f 123//151 114//151 113//151
f 124//152 114//152 123//152
f 124//153 115//153 114//153
f 125//154 115//154 124//154
f 125//155 116//155 115//155
f 126//156 116//156 125//156
f 126//156 117//156 116//156
f 126//157 119//157 110//157
f 126//157 110//157 117//157
f 127//158 119//158 128//158
f 127//159 118//159 119//159
f 129//160 118//160 127//160
f 129//160 120//160 118//160
f 130//161 120//161 129//161
f 130//161 121//161 120//161
f 131//162 121//162 130//162
f 131//163 122//163 121//163
f 132//164 122//164 131//164
f 132//164 123//164 122//164
f 133//165 123//165 132//165
f 133//165 124//165 123//165
f 134//166 124//166 133//166
f 134//166 125//166 124//166
f 135//167 125//167 134//167
f 135//167 126//167 125//167
f 135//168 128//168 119//168
f 135//169 119//169 126//169
f 136//170 128//170 137//170
f 136//171 127//171 128//171
f 138//172 127//172 136//172
f 138//172 129//172 127//172
f 139//173 129//173 138//173
f 139//173 130//173 129//173
f 140//174 130//174 139//174
f 140//174 131//174 130//174
f 141//175 131//175 140//175
f 141//176 132//176 131//176
f 142//177 132//177 141//177
f 142//177 133//177 132//177
f 143//178 133//178 142//178
f 143//178 134//178 133//178
f 144//179 134//179 143//179
f 144//180 135//180 134//180
f 144//181 137//181 128//181
f 144//182 128//182 135//182
f 145//183 137//183 146//183
f 145//183 136//183 137//183
f 147//184 136//184 145//184
f 147//184 138//184 136//184
f 148//185 138//185 147//185
f 148//185 139//185 138//185
f 149//186 139//186 148//186
f 149//187 140//187 139//187
f 150//188 140//188 149//188
f 150//188 141//188 140//188
f 151//189 141//189 150//189
f 151//190 142//190 141//190
f 152//191 142//191 151//191
f 152//192 143//192 142//192
f 153//193 143//193 152//193
f 153//194 144//194 143//194
f 153//195 146//195 137//195
f 153//196 137//196 144//196
f 154//197 146//197 155//197
f 154//197 145//197 146//197
f 156//198 145//198 154//198
f 156//198 147//198 145//198
f 157//199 147//199 156//199
f 157//199 148//199 147//199
f 158//200 148//200 157//200
f 158//200 149//200 148//200
f 159//201 149//201 158//201
f 159//201 150//201 149//201
f 160//202 150//202 159//202
f 160//202 151//202 150//202
f 161//203 151//203 160//203
f 161//203 152//203 151//203
f 162//204 152//204 161//204
f 162//204 153//204 152//204
f 162//205 155//205 146//205
f 162//206 146//206 153//206
