# Blender v2.79 (sub 0) OBJ File: 'colorgrid.blend'
# www.blender.org
mtllib colorgrid.mtl
g Grid.018_Grid.020
v 0.088010 0.130945 1.742033
v 0.310232 0.130945 1.742033
v 0.088010 0.130945 1.519810
v 0.310232 0.130945 1.519810
v 0.088010 0.130945 1.297588
v 0.310232 0.130945 1.297588
v 0.088010 0.130945 1.075366
v 0.310232 0.130945 1.075366
v 0.088010 0.130945 1.075366
v 0.310232 0.130945 1.075366
v 0.088010 0.130945 0.853144
v 0.310232 0.130945 0.853144
v 0.088010 0.130945 0.630921
v 0.310232 0.130945 0.630921
v 0.088010 0.130945 0.408699
v 0.310232 0.130945 0.408699
v -0.356435 0.130945 1.075366
v -0.134212 0.130945 1.075366
v 0.088010 0.130945 1.075366
v -0.356435 0.130945 0.853144
v -0.134212 0.130945 0.853144
v 0.088010 0.130945 0.853144
v -0.356435 0.130945 0.630921
v -0.134212 0.130945 0.630921
v 0.088010 0.130945 0.630921
v -0.356435 0.130945 0.408699
v -0.134212 0.130945 0.408699
v 0.088010 0.130945 0.408699
vn 0.0000 1.0000 0.0000
usemtl Material.019
s off
f 2//1 3//1 1//1
f 4//1 5//1 3//1
f 6//1 7//1 5//1
f 2//1 4//1 3//1
f 4//1 6//1 5//1
f 6//1 8//1 7//1
usemtl Material.020
f 10//1 11//1 9//1
f 12//1 13//1 11//1
f 14//1 15//1 13//1
f 10//1 12//1 11//1
f 12//1 14//1 13//1
f 14//1 16//1 15//1
usemtl Material.017
f 17//1 21//1 20//1
f 19//1 21//1 18//1
f 21//1 23//1 20//1
f 22//1 24//1 21//1
f 24//1 26//1 23//1
f 25//1 27//1 24//1
f 17//1 18//1 21//1
f 19//1 22//1 21//1
f 21//1 24//1 23//1
f 22//1 25//1 24//1
f 24//1 27//1 26//1
f 25//1 28//1 27//1
g Grid.014_Grid.016
v -0.356435 0.130945 1.964255
v -0.134213 0.130945 1.964255
v 0.088010 0.130945 1.964255
v -0.356435 0.130945 1.742033
v -0.134213 0.130945 1.742033
v 0.088010 0.130945 1.742033
v -0.356435 0.130945 1.519810
v -0.134213 0.130945 1.519810
v 0.088010 0.130945 1.519810
v -0.356435 0.130945 1.519810
v -0.134212 0.130945 1.519810
v 0.088010 0.130945 1.519810
v -0.356435 0.130945 1.297588
v -0.134212 0.130945 1.297588
v 0.088010 0.130945 1.297588
v -0.356435 0.130945 1.075366
v -0.134212 0.130945 1.075366
v 0.088010 0.130945 1.075366
v -0.800879 0.130945 1.519810
v -0.578657 0.130945 1.519810
v -0.356435 0.130945 1.519810
v -0.800879 0.130945 1.297588
v -0.578657 0.130945 1.297588
v -0.356435 0.130945 1.297588
v -0.800879 0.130945 1.075366
v -0.578657 0.130945 1.075366
v -0.356435 0.130945 1.075366
vn 0.0000 1.0000 0.0000
usemtl Material.015
s off
f 30//2 32//2 29//2
f 31//2 33//2 30//2
f 33//2 35//2 32//2
f 34//2 36//2 33//2
f 30//2 33//2 32//2
f 31//2 34//2 33//2
f 33//2 36//2 35//2
f 34//2 37//2 36//2
usemtl Material.016
f 39//2 41//2 38//2
f 40//2 42//2 39//2
f 42//2 44//2 41//2
f 43//2 45//2 42//2
f 39//2 42//2 41//2
f 40//2 43//2 42//2
f 42//2 45//2 44//2
f 43//2 46//2 45//2
usemtl Material.012
f 48//2 50//2 47//2
f 49//2 51//2 48//2
f 51//2 53//2 50//2
f 52//2 54//2 51//2
f 48//2 51//2 50//2
f 49//2 52//2 51//2
f 51//2 54//2 53//2
f 52//2 55//2 54//2
g Grid.012_Grid.014
v -0.800879 0.130945 1.075366
v -0.578657 0.130945 1.075366
v -0.356435 0.130945 1.075366
v -0.800879 0.130945 0.853144
v -0.578657 0.130945 0.853144
v -0.356435 0.130945 0.853144
v -0.800879 0.130945 0.630921
v -0.578657 0.130945 0.630921
v -0.356435 0.130945 0.630921
v -0.800879 0.130945 0.408699
v -0.578657 0.130945 0.408699
v -0.356435 0.130945 0.408699
v -1.245324 0.130945 1.075366
v -1.023101 0.130945 1.075366
v -0.800879 0.130945 1.075366
v -1.245324 0.130945 0.853144
v -1.023101 0.130945 0.853144
v -0.800879 0.130945 0.853144
v -1.245324 0.130945 0.630921
v -1.023101 0.130945 0.630921
v -0.800879 0.130945 0.630921
v -1.245324 0.130945 0.408699
v -1.023101 0.130945 0.408699
v -0.800879 0.130945 0.408699
v -1.689768 0.130945 1.075366
v -1.467546 0.130945 1.075366
v -1.245324 0.130945 1.075366
v -1.689768 0.130945 0.853144
v -1.467546 0.130945 0.853144
v -1.245324 0.130945 0.853144
v -1.689768 0.130945 0.630921
v -1.467546 0.130945 0.630921
v -1.245324 0.130945 0.630921
v -1.689768 0.130945 0.408699
v -1.467546 0.130945 0.408699
v -1.245324 0.130945 0.408699
vn 0.0000 1.0000 0.0000
usemtl Material.013
s off
f 57//3 59//3 56//3
f 58//3 60//3 57//3
f 60//3 62//3 59//3
f 61//3 63//3 60//3
f 63//3 65//3 62//3
f 64//3 66//3 63//3
f 57//3 60//3 59//3
f 58//3 61//3 60//3
f 60//3 63//3 62//3
f 61//3 64//3 63//3
f 63//3 66//3 65//3
f 64//3 67//3 66//3
usemtl Material.009
f 69//3 71//3 68//3
f 69//3 73//3 72//3
f 72//3 74//3 71//3
f 73//3 75//3 72//3
f 75//3 77//3 74//3
f 76//3 78//3 75//3
f 69//3 72//3 71//3
f 69//3 70//3 73//3
f 72//3 75//3 74//3
f 73//3 76//3 75//3
f 75//3 78//3 77//3
f 76//3 79//3 78//3
usemtl Material.005
f 81//3 83//3 80//3
f 82//3 84//3 81//3
f 84//3 86//3 83//3
f 85//3 87//3 84//3
f 87//3 89//3 86//3
f 88//3 90//3 87//3
f 81//3 84//3 83//3
f 82//3 85//3 84//3
f 84//3 87//3 86//3
f 85//3 88//3 87//3
f 87//3 90//3 89//3
f 88//3 91//3 90//3
g Grid.010_Grid.012
v -0.800879 0.130945 1.964255
v -0.578657 0.130945 1.964255
v -0.356435 0.130945 1.964255
v -0.800879 0.130945 1.742033
v -0.578657 0.130945 1.742033
v -0.356435 0.130945 1.742033
v -0.800879 0.130945 1.519810
v -0.578657 0.130945 1.519810
v -0.356435 0.130945 1.519810
v -1.245324 0.130945 1.519810
v -1.023101 0.130945 1.519810
v -0.800879 0.130945 1.519810
v -1.245324 0.130945 1.297588
v -1.023101 0.130945 1.297588
v -0.800879 0.130945 1.297588
v -1.245324 0.130945 1.075366
v -1.023101 0.130945 1.075366
v -0.800879 0.130945 1.075366
v -1.245324 0.130945 1.964255
v -1.023101 0.130945 1.964255
v -0.800879 0.130945 1.964255
v -1.245324 0.130945 1.742032
v -1.023101 0.130945 1.742032
v -0.800879 0.130945 1.742032
v -1.245324 0.130945 1.519810
v -1.023101 0.130945 1.519810
v -0.800879 0.130945 1.519810
vn 0.0000 1.0000 0.0000
usemtl Material.011
s off
f 93//4 95//4 92//4
f 94//4 96//4 93//4
f 96//4 98//4 95//4
f 97//4 99//4 96//4
f 93//4 96//4 95//4
f 94//4 97//4 96//4
f 96//4 99//4 98//4
f 97//4 100//4 99//4
usemtl Material.008
f 102//4 104//4 101//4
f 103//4 105//4 102//4
f 105//4 107//4 104//4
f 106//4 108//4 105//4
f 102//4 105//4 104//4
f 103//4 106//4 105//4
f 105//4 108//4 107//4
f 106//4 109//4 108//4
usemtl Material.007
f 111//4 113//4 110//4
f 112//4 114//4 111//4
f 114//4 116//4 113//4
f 115//4 117//4 114//4
f 111//4 114//4 113//4
f 112//4 115//4 114//4
f 114//4 117//4 116//4
f 115//4 118//4 117//4
g Grid.009_Grid.011
v -0.800879 0.130945 2.408699
v -0.578657 0.130945 2.408699
v -0.356435 0.130945 2.408699
v -0.800879 0.130945 2.186477
v -0.578657 0.130945 2.186477
v -0.356435 0.130945 2.186477
v -0.800879 0.130945 1.964255
v -0.578657 0.130945 1.964255
v -0.356435 0.130945 1.964255
v 0.088010 0.130945 2.408699
v 0.310232 0.130945 2.408699
v 0.088010 0.130945 2.186477
v 0.310232 0.130945 2.186477
v 0.088010 0.130945 1.964255
v 0.310232 0.130945 1.964255
v 0.088010 0.130945 1.742032
v 0.310232 0.130945 1.742032
v -0.356435 0.130945 2.408699
v -0.134212 0.130945 2.408699
v 0.088010 0.130945 2.408699
v -0.356435 0.130945 2.186477
v -0.134212 0.130945 2.186477
v 0.088010 0.130945 2.186477
v -0.356435 0.130945 1.964255
v -0.134212 0.130945 1.964255
v 0.088010 0.130945 1.964255
vn 0.0000 1.0000 0.0000
usemtl Material.010
s off
f 120//5 122//5 119//5
f 121//5 123//5 120//5
f 123//5 125//5 122//5
f 124//5 126//5 123//5
f 120//5 123//5 122//5
f 121//5 124//5 123//5
f 123//5 126//5 125//5
f 124//5 127//5 126//5
usemtl Material.018
f 129//5 130//5 128//5
f 131//5 132//5 130//5
f 133//5 134//5 132//5
f 129//5 131//5 130//5
f 131//5 133//5 132//5
f 133//5 135//5 134//5
usemtl Material.014
f 137//5 139//5 136//5
f 138//5 140//5 137//5
f 140//5 142//5 139//5
f 141//5 143//5 140//5
f 137//5 140//5 139//5
f 138//5 141//5 140//5
f 140//5 143//5 142//5
f 141//5 144//5 143//5
g Grid.005_Grid.007
v -1.245324 0.130945 2.408699
v -1.023101 0.130945 2.408699
v -0.800879 0.130945 2.408699
v -1.245324 0.130945 2.186477
v -1.023101 0.130945 2.186477
v -0.800879 0.130945 2.186477
v -1.245324 0.130945 1.964255
v -1.023101 0.130945 1.964255
v -0.800879 0.130945 1.964255
v -1.689768 0.130945 1.964255
v -1.467546 0.130945 1.964255
v -1.245324 0.130945 1.964255
v -1.689768 0.130945 1.742032
v -1.467546 0.130945 1.742032
v -1.245324 0.130945 1.742032
v -1.689768 0.130945 1.519810
v -1.467546 0.130945 1.519810
v -1.245324 0.130945 1.519810
v -1.689768 0.130945 2.408699
v -1.467546 0.130945 2.408699
v -1.245324 0.130945 2.408699
v -1.689768 0.130945 2.186477
v -1.467546 0.130945 2.186477
v -1.245324 0.130945 2.186477
v -1.689768 0.130945 1.964255
v -1.467546 0.130945 1.964255
v -1.245324 0.130945 1.964255
vn 0.0000 1.0000 0.0000
usemtl Material.006
s off
f 146//6 148//6 145//6
f 147//6 149//6 146//6
f 149//6 151//6 148//6
f 150//6 152//6 149//6
f 146//6 149//6 148//6
f 147//6 150//6 149//6
f 149//6 152//6 151//6
f 150//6 153//6 152//6
usemtl Material.003
f 155//6 157//6 154//6
f 156//6 158//6 155//6
f 158//6 160//6 157//6
f 159//6 161//6 158//6
f 155//6 158//6 157//6
f 156//6 159//6 158//6
f 158//6 161//6 160//6
f 159//6 162//6 161//6
usemtl Material.002
f 164//6 166//6 163//6
f 165//6 167//6 164//6
f 167//6 169//6 166//6
f 168//6 170//6 167//6
f 164//6 167//6 166//6
f 165//6 168//6 167//6
f 167//6 170//6 169//6
f 168//6 171//6 170//6
g Grid.003_Grid.005
v -1.689768 0.130945 1.519810
v -1.467546 0.130945 1.519810
v -1.245324 0.130945 1.519810
v -1.689768 0.130945 1.297588
v -1.467546 0.130945 1.297588
v -1.245324 0.130945 1.297588
v -1.689768 0.130945 1.075366
v -1.467546 0.130945 1.075366
v -1.245324 0.130945 1.075366
vn 0.0000 1.0000 0.0000
usemtl Material.004
s off
f 173//7 175//7 172//7
f 174//7 176//7 173//7
f 176//7 178//7 175//7
f 177//7 179//7 176//7
f 173//7 176//7 175//7
f 174//7 177//7 176//7
f 176//7 179//7 178//7
f 177//7 180//7 179//7
