# Blender v2.79 (sub 0) OBJ File: ''
# www.blender.org
mtllib multcoloredcube2.mtl
g Cube_Cube.006
v 2.000022 -0.150807 1.641816
v 2.000022 -0.150807 -0.358184
v 0.000022 -0.150807 1.641816
v 0.000022 -0.150807 -0.358184
vn 0.0000 -1.0000 -0.0000
usemtl Material.006
s 1
f 2//1 3//1 4//1
usemtl Material.011
f 2//1 1//1 3//1
g Cube_Cube.005
v 2.000022 1.849193 1.641816
v 0.000022 1.849193 1.641816
v 2.000022 -0.150807 1.641816
v 0.000022 -0.150807 1.641816
vn 0.0000 -0.0000 1.0000
usemtl Material.003
s 1
f 5//2 8//2 7//2
usemtl Material.009
f 5//2 6//2 8//2
g Cube_Cube.004
v 0.000022 1.849193 -0.358184
v 0.000022 1.849193 1.641816
v 0.000022 -0.150807 1.641816
v 0.000022 -0.150807 -0.358184
vn -1.0000 -0.0000 0.0000
usemtl Material.005
s 1
f 10//3 12//3 11//3
usemtl Material.008
f 10//3 9//3 12//3
g Cube_Cube.003
v 0.000022 1.849193 -0.358184
v 2.000022 1.849193 1.641816
v 2.000022 1.849193 -0.358184
v 0.000022 1.849193 1.641816
vn 0.0000 1.0000 0.0000
usemtl Material.001
s 1
f 13//4 14//4 15//4
usemtl Material.007
f 13//4 16//4 14//4
g Cube_Cube.002
v 0.000022 1.849193 -0.358184
v 2.000022 1.849193 -0.358184
v 2.000022 -0.150807 -0.358184
v 0.000022 -0.150807 -0.358184
vn 0.0000 0.0000 -1.0000
usemtl Material.004
s 1
f 17//5 19//5 20//5
usemtl Material.009
f 17//5 18//5 19//5
g Cube_Cube.000
v 2.000022 1.849193 1.641816
v 2.000022 1.849193 -0.358184
v 2.000022 -0.150807 1.641816
v 2.000022 -0.150807 -0.358184
vn 1.0000 0.0000 0.0000
usemtl Material.002
s 1
f 22//6 23//6 24//6
usemtl Material.010
f 22//6 21//6 23//6
